<?xml version="1.0" encoding="UTF-8" standalone="no"?>
<!DOCTYPE svg PUBLIC "-//W3C//DTD SVG 1.1//EN" "http://www.w3.org/Graphics/SVG/1.1/DTD/svg11.dtd">
<svg width="100%" height="100%" viewBox="0 0 1280 1280" version="1.1" xmlns="http://www.w3.org/2000/svg" xmlns:xlink="http://www.w3.org/1999/xlink" xml:space="preserve" xmlns:serif="http://www.serif.com/" style="fill-rule:evenodd;clip-rule:evenodd;stroke-linejoin:round;stroke-miterlimit:2;">
    <g transform="matrix(1.07548,0,0,1.08584,30.2918,36.4912)">
        <g id="レイヤー1">
            <rect x="-28.166" y="-33.606" width="1190.16" height="1178.81" style="fill:rgb(85,107,47);"/>
        </g>
    </g>
    <g transform="matrix(0.925657,0,0,1.56903,-513.942,-1805.11)">
        <g>
            <g transform="matrix(0.607461,0,0,0.960509,571.422,286.592)">
                <path d="M1111.4,954.455L1196.98,1139.03L1111.4,1692.74L1025.81,1139.03L1111.4,954.455Z" style="fill:rgb(224,184,94);"/>
            </g>
            <g transform="matrix(0.586763,-0.157223,0.248499,0.927412,173.395,517.123)">
                <path d="M1111.4,954.455L1196.98,1139.03L1111.4,1692.74L1025.81,1139.03L1111.4,954.455Z" style="fill:rgb(224,184,94);"/>
            </g>
            <g transform="matrix(0.526077,-0.303731,0.479625,0.830734,-151.078,843.19)">
                <path d="M1111.4,954.455L1196.98,1139.03L1111.4,1692.74L1025.81,1139.03L1111.4,954.455Z" style="fill:rgb(224,184,94);"/>
            </g>
            <g transform="matrix(0.42954,-0.42954,0.679054,0.679054,-381.25,1240.67)">
                <path d="M1111.4,954.455L1196.98,1139.03L1111.4,1692.74L1025.81,1139.03L1111.4,954.455Z" style="fill:rgb(224,184,94);"/>
            </g>
            <g transform="matrix(0.303731,-0.526077,0.830556,0.479522,-498.914,1685.52)">
                <path d="M1111.4,954.455L1196.98,1139.03L1111.4,1692.74L1025.81,1139.03L1111.4,954.455Z" style="fill:rgb(224,184,94);"/>
            </g>
            <g transform="matrix(-0.586763,-0.157223,-0.248499,0.927412,2318.95,515.299)">
                <path d="M1111.4,954.455L1196.98,1139.03L1111.4,1692.74L1025.81,1139.03L1111.4,954.455Z" style="fill:rgb(224,184,94);"/>
            </g>
            <g transform="matrix(-0.526077,-0.303731,-0.479625,0.830734,2643.42,841.365)">
                <path d="M1111.4,954.455L1196.98,1139.03L1111.4,1692.74L1025.81,1139.03L1111.4,954.455Z" style="fill:rgb(224,184,94);"/>
            </g>
            <g transform="matrix(-0.42954,-0.42954,-0.679054,0.679054,2873.6,1238.85)">
                <path d="M1111.4,954.455L1196.98,1139.03L1111.4,1692.74L1025.81,1139.03L1111.4,954.455Z" style="fill:rgb(224,184,94);"/>
            </g>
            <g transform="matrix(-0.303731,-0.526077,-0.830556,0.479522,2991.26,1683.7)">
                <path d="M1111.4,954.455L1196.98,1139.03L1111.4,1692.74L1025.81,1139.03L1111.4,954.455Z" style="fill:rgb(224,184,94);"/>
            </g>
        </g>
    </g>
</svg>
